<?xml version="1.0" standalone="no"?>
<!DOCTYPE svg PUBLIC "-//W3C//DTD SVG 20010904//EN"
 "http://www.w3.org/TR/2001/REC-SVG-20010904/DTD/svg10.dtd">
<svg version="1.0" xmlns="http://www.w3.org/2000/svg"
 width="200.000000pt" height="200.000000pt" viewBox="0 0 200.000000 200.000000"
 preserveAspectRatio="xMidYMid meet">
<metadata>
Created by potrace 1.16, written by Peter Selinger 2001-2019
</metadata>
<g transform="translate(0.000000,200.000000) scale(0.100000,-0.100000)"
fill="#000000" stroke="none">
<path d="M908 1780 c-28 -28 -30 -35 -24 -79 l6 -48 -52 -12 c-175 -40 -348
-184 -429 -356 -85 -179 -92 -405 -14 -435 40 -15 54 -12 85 18 27 27 28 33
28 123 0 147 55 283 153 376 49 45 140 98 196 112 103 27 131 41 142 72 5 16
7 37 4 46 -5 14 1 15 53 8 206 -25 390 -155 482 -341 124 -248 61 -545 -151
-712 -82 -65 -138 -96 -218 -122 -61 -19 -75 -20 -170 -10 -57 5 -132 19 -165
30 -68 23 -165 78 -206 117 -30 28 -48 24 -48 -12 0 -55 120 -148 241 -187 61
-19 68 -24 63 -42 -4 -12 -7 -22 -8 -23 -2 -2 -29 4 -62 13 -192 50 -360 187
-450 369 -53 108 -74 197 -74 324 0 93 0 94 -20 76 -34 -31 -42 -74 -30 -171
22 -176 89 -320 207 -445 106 -112 223 -181 368 -219 39 -10 90 -28 113 -40
38 -20 52 -22 115 -16 159 16 273 55 403 142 280 185 417 531 338 854 -24 96
-93 235 -157 315 -151 189 -383 305 -610 305 -74 0 -80 -2 -109 -30z"/>
</g>
</svg>
