<svg id="svg" version="1.1" xmlns="http://www.w3.org/2000/svg" xmlns:xlink="http://www.w3.org/1999/xlink" width="400" height="400" viewBox="0, 0, 400,400"><g id="svgg"><path id="path0" d="M3.700 160.931 L 0.000 161.330 0.000 200.028 L 0.000 238.726 2.300 239.009 C 3.565 239.164,93.565 239.362,202.300 239.448 L 400.000 239.606 400.000 200.003 L 400.000 160.400 203.700 160.467 C 76.586 160.510,6.096 160.674,3.700 160.931 " stroke="none" fill="#040404" fill-rule="evenodd"></path><path id="path1" d="M0.000 120.061 L 0.000 160.122 4.262 159.861 C 6.606 159.717,96.606 159.600,204.262 159.600 L 400.000 159.600 400.000 119.800 L 400.000 80.000 200.000 80.000 L 0.000 80.000 0.000 120.061 M0.000 279.939 L 0.000 320.000 200.000 320.000 L 400.000 320.000 400.000 280.200 L 400.000 240.400 204.262 240.400 C 96.606 240.400,6.606 240.283,4.262 240.139 L 0.000 239.878 0.000 279.939 " stroke="none" fill="#fbfbfb" fill-rule="evenodd"></path><path id="path2" d="M0.000 40.000 L 0.000 80.000 200.000 80.000 L 400.000 80.000 400.000 40.000 L 400.000 0.000 200.000 0.000 L 0.000 0.000 0.000 40.000 M2.900 159.897 C 0.608 160.006,0.000 160.165,0.000 160.655 C 0.000 161.175,0.369 161.229,2.300 160.992 C 3.565 160.837,93.565 160.638,202.300 160.552 C 332.672 160.447,400.000 160.259,400.000 159.997 C 400.000 159.631,10.543 159.533,2.900 159.897 M-0.000 239.302 C -0.000 239.751,0.939 239.936,4.262 240.139 C 11.517 240.583,400.000 240.449,400.000 240.003 C 400.000 239.741,332.804 239.552,202.300 239.448 C 93.565 239.362,3.565 239.164,2.300 239.009 C 0.434 238.779,-0.000 238.835,-0.000 239.302 M0.000 360.000 L 0.000 400.000 200.000 400.000 L 400.000 400.000 400.000 360.000 L 400.000 320.000 200.000 320.000 L 0.000 320.000 0.000 360.000 " stroke="none" fill="#b42c1c" fill-rule="evenodd"></path></g></svg>